# xmcd
#
# Track frame offsets:
#	150
#	12274
#	28291
#	41317
#	55811
#	66917
#	82957
#	97081
#	111395
#	129183
#
# Disc length: 1917 seconds
#
# Revision: 1
# Processed by: cddbd v1.5.2PL0 Copyright (c) Steve Scherf et al.
# Submitted via: audiograbber 1.83.01
#
DISCID=7f077b0a
DTITLE=Country Mountain Banjo - 10 All-Time Country Mountain Favorites
DYEAR=2003
DGENRE=Bluegrass
TTITLE0=Reuben's Banjo
TTITLE1=Angeline The Baker
TTITLE2=Goin' Across The Sea
TTITLE3=Shootin' Creek
TTITLE4=Cripple Creek
TTITLE5=Ducks On The Millpond
TTITLE6=Sugar Hill
TTITLE7=Cluck Or Hen
TTITLE8=Sandy Boys
TTITLE9=June Apple
EXTD=Songs performed by The Pine Tree String Band
EXTT0=
EXTT1=
EXTT2=
EXTT3=
EXTT4=
EXTT5=
EXTT6=
EXTT7=
EXTT8=
EXTT9=
PLAYORDER=
